<svg width="18" height="18" viewBox="0 0 18 18" fill="none" xmlns="http://www.w3.org/2000/svg">
<g clip-path="url(#clip0_1742_509)">
<path d="M9.5526 0.189136C9.39461 0.0662371 9.20016 -0.000488281 9 -0.000488281C8.79984 -0.000488281 8.60539 0.0662371 8.4474 0.189136L1.0422 5.94914C0.717445 6.20176 0.45472 6.52527 0.274093 6.89495C0.0934661 7.26462 -0.000284806 7.67069 6.4992e-07 8.08214V16.2001C6.4992e-07 16.6775 0.189643 17.1354 0.527208 17.4729C0.864774 17.8105 1.32261 18.0001 1.8 18.0001H5.4C5.87739 18.0001 6.33523 17.8105 6.67279 17.4729C7.01036 17.1354 7.2 16.6775 7.2 16.2001V10.8001H10.8V16.2001C10.8 16.6775 10.9896 17.1354 11.3272 17.4729C11.6648 17.8105 12.1226 18.0001 12.6 18.0001H16.2C16.6774 18.0001 17.1352 17.8105 17.4728 17.4729C17.8104 17.1354 18 16.6775 18 16.2001V8.08214C18.0001 7.67054 17.906 7.26438 17.7251 6.89469C17.5442 6.52501 17.2811 6.20158 16.956 5.94914L9.5526 0.189136Z" fill="#3999CF"/>
</g>
<defs>
<clipPath id="clip0_1742_509">
<rect width="18" height="18" fill="white"/>
</clipPath>
</defs>
</svg>
